<svg width="680" height="620" viewBox="0 0 680 620" fill="none" xmlns="http://www.w3.org/2000/svg">
<path d="M660.46 120.473L462.108 5.9565C450.056 -1.00379 435.21 -0.997977 423.167 5.9565L224.816 120.476C224.808 120.482 224.803 120.486 224.794 120.49L76.9549 205.846C66.1504 212.083 62.2143 225.494 68.1684 235.804C74.1226 246.123 87.7082 249.42 98.5069 243.187L205.348 181.504V231.632L11.5614 343.516C0.75804 349.751 -3.17574 363.168 2.7761 373.477C8.73376 383.794 22.3159 387.092 33.1181 380.856L205.348 281.416V331.204L110.255 386.108C99.4514 392.344 95.5199 405.761 101.473 416.071C107.428 426.382 121.014 429.689 131.813 423.453L205.348 380.996V383.238C205.345 390.191 207.205 396.887 210.564 402.707C213.924 408.523 218.791 413.485 224.816 416.961L227.053 418.252L44.289 523.768C33.4856 530.004 29.5588 543.421 35.5106 553.73C41.466 564.037 55.0481 567.347 65.8456 561.111L270.167 443.143L313.289 468.039L222.969 520.182C212.17 526.419 208.233 539.83 214.187 550.141C220.142 560.46 233.728 563.757 244.527 557.522L356.402 492.929L399.523 517.824L292.683 579.507C281.885 585.743 277.947 599.155 283.902 609.472C289.857 619.784 303.442 623.083 314.246 616.847L519.965 498.073C519.965 498.073 519.973 498.067 519.973 498.064L660.46 416.955C672.502 410 679.93 397.151 679.93 383.234V154.195C679.93 140.285 672.51 127.431 660.46 120.473Z" fill="#174368"/>
<path d="M48.2905 271.845C58.5332 265.927 62.0436 252.833 56.1301 242.592C50.2167 232.351 37.1219 228.841 26.8792 234.757C16.64 240.67 13.1261 253.767 19.0361 264.002C24.9507 274.249 38.0478 277.754 48.2905 271.845Z" fill="#174368"/>
<path d="M84.9292 450.352C95.1719 444.435 98.6835 431.338 92.77 421.094C86.8554 410.855 73.7583 407.348 63.5133 413.262C53.2752 419.169 49.766 432.27 55.676 442.509C61.5894 452.748 74.69 456.26 84.9292 450.352Z" fill="#174368"/>
<path d="M168.93 551.548C158.694 557.456 155.184 570.553 161.097 580.791C167.011 591.034 180.105 594.544 190.345 588.633C200.588 582.719 204.101 569.62 198.188 559.376C192.278 549.142 179.174 545.632 168.93 551.548Z" fill="#174368"/>
<path fill-rule="evenodd" clip-rule="evenodd" d="M301.435 351.762C293.816 338.561 292.266 323.521 295.922 309.874C299.579 296.23 308.441 283.978 321.639 276.357L494.283 176.681L549.482 272.287L376.838 371.965C363.637 379.586 348.596 381.133 334.953 377.477C321.309 373.821 309.056 364.961 301.435 351.762ZM310.32 346.631C297.91 325.137 305.274 297.651 326.769 285.241L490.529 190.695L535.469 268.533L371.708 363.081C350.214 375.491 322.728 368.126 310.32 346.631Z" fill="white"/>
<path fill-rule="evenodd" clip-rule="evenodd" d="M289.277 337.787L283.592 359C283.058 360.993 284.252 363.059 286.244 363.593L307.458 369.277C302.785 365.445 298.712 360.722 295.512 355.179C292.312 349.638 290.259 343.749 289.277 337.787Z" fill="white"/>
<path fill-rule="evenodd" clip-rule="evenodd" d="M576.822 270.324L539.026 204.857C537.609 202.404 538.45 199.267 540.903 197.851C543.356 196.435 546.493 197.276 547.909 199.729L585.707 265.195C587.826 268.865 588.249 273.094 587.221 276.953L587.248 276.961C586.221 280.792 583.732 284.241 580.03 286.378L567.766 293.459C564.065 295.596 559.833 296.027 556.002 295L556.009 294.973C552.153 293.935 548.702 291.452 546.583 287.783L479.416 171.444C477.296 167.775 476.873 163.545 477.901 159.687L477.874 159.679C478.901 155.848 481.391 152.399 485.092 150.262L497.355 143.182C501.057 141.044 505.289 140.613 509.12 141.64L509.113 141.666C512.969 142.705 516.419 145.186 518.539 148.857L529.896 168.528C531.313 170.981 530.472 174.118 528.019 175.535C525.566 176.952 522.429 176.111 521.012 173.658L509.655 153.987C508.212 151.486 504.985 150.622 502.484 152.065L490.221 159.145C487.72 160.589 486.856 163.815 488.3 166.316L555.467 282.653C556.91 285.154 560.137 286.018 562.638 284.575L574.901 277.495C577.402 276.051 578.266 272.825 576.822 270.324Z" fill="white"/>
<path fill-rule="evenodd" clip-rule="evenodd" d="M412.28 243.767C423.711 249.291 434.012 258.617 441.199 271.067C448.387 283.516 451.314 297.099 450.383 309.761L424.359 324.786C425.292 312.124 422.366 298.54 415.177 286.091C407.989 273.641 397.689 264.315 386.257 258.792L412.28 243.767Z" fill="white"/>
<path fill-rule="evenodd" clip-rule="evenodd" d="M368.425 269.087C379.857 274.61 390.157 283.937 397.344 296.387C404.532 308.836 407.459 322.419 406.527 335.081L380.503 350.106C381.437 337.443 378.51 323.86 371.322 311.411C364.135 298.961 353.834 289.634 342.401 284.112L368.425 269.087Z" fill="white"/>
<path fill-rule="evenodd" clip-rule="evenodd" d="M325.108 294.671C336.324 300.226 346.416 309.455 353.49 321.709C360.565 333.962 363.513 347.315 362.715 359.808C355.082 362.703 346.92 362.988 339.379 360.967C329.963 358.443 321.506 352.326 316.243 343.213C310.983 334.101 309.912 323.719 312.436 314.301C314.457 306.757 318.784 299.833 325.108 294.671Z" fill="white"/>
<path d="M530.019 189.258C531.435 191.711 534.572 192.552 537.025 191.135C539.478 189.719 540.319 186.582 538.902 184.129C537.486 181.676 534.349 180.835 531.896 182.252C529.443 183.668 528.602 186.805 530.019 189.258Z" fill="white"/>
<path fill-rule="evenodd" clip-rule="evenodd" d="M468.218 299.464L506.159 277.558C501.446 274.576 496.967 269.922 493.554 264.011C489.709 257.351 487.921 250.317 488.114 244.235C488.361 238.102 486.363 230.602 482.681 224.227C479 217.85 474.643 213.507 469.844 210.533L468.954 211.047L444.581 225.119L430.116 233.47C441.546 238.994 451.846 248.321 459.033 260.771C466.22 273.219 469.149 286.802 468.218 299.464Z" fill="white"/>
<path fill-rule="evenodd" clip-rule="evenodd" d="M500.723 257.791C504.566 264.447 506.354 271.478 506.163 277.557C501.449 274.575 496.971 269.922 493.558 264.011C489.715 257.354 487.928 250.324 488.118 244.244C492.833 247.226 497.311 251.88 500.723 257.791Z" fill="#CECECE"/>
<path fill-rule="evenodd" clip-rule="evenodd" d="M422.961 207.205C423.963 208.252 425.368 208.718 426.797 208.503C430.282 207.928 431.685 203.754 429.274 201.183C428.124 199.982 426.975 198.778 425.82 197.582C422.688 194.375 417.337 197.394 418.467 201.731C418.669 202.471 419.015 203.088 419.545 203.643C420.691 204.824 421.826 206.016 422.961 207.205ZM407.397 191.616C410.693 194.521 415.755 191.237 414.446 187.044C414.206 186.267 413.771 185.615 413.167 185.073C410.913 183.076 408.569 181.137 406.161 179.329C402.345 176.523 397.431 180.858 399.766 185.007C400.075 185.529 400.434 185.932 400.917 186.301C403.148 187.986 405.304 189.763 407.397 191.616ZM386.822 177.361C390.941 179.441 395.057 174.599 392.303 170.855C391.889 170.318 391.421 169.922 390.819 169.607C388.117 168.204 385.363 166.92 382.544 165.771C378.324 164.09 374.641 169.155 377.612 172.672C378.088 173.212 378.61 173.583 379.274 173.858C381.862 174.942 384.331 176.068 386.822 177.361ZM363.435 169.192C365.058 169.477 366.676 168.845 367.677 167.537C369.635 164.918 368.184 161.195 364.97 160.604C361.929 160.058 358.868 159.688 355.783 159.507C353.857 159.417 352.14 160.537 351.456 162.341C350.436 165.101 352.371 168.054 355.308 168.218C358.011 168.361 360.771 168.713 363.435 169.192ZM339.16 169.444C340.848 169.046 342.117 167.769 342.477 166.068C343.105 162.96 340.341 160.247 337.247 160.933C334.188 161.609 331.206 162.51 328.281 163.632C326.543 164.324 325.448 165.964 325.497 167.836C325.604 170.845 328.624 172.852 331.435 171.766C333.956 170.798 336.523 170.027 339.16 169.444ZM318.515 180.116C319.648 178.912 319.998 177.219 319.456 175.66C318.34 172.582 314.436 171.766 312.174 174.124C309.883 176.517 307.963 179.197 306.388 182.11C304.248 186.199 309.046 190.384 312.819 187.678C313.357 187.281 313.769 186.798 314.088 186.211C315.268 184.003 316.783 181.925 318.515 180.116ZM310.964 200.713C310.832 198.945 309.716 197.469 308.043 196.877C305.091 195.862 302.056 198.168 302.259 201.283C302.461 204.566 303.084 207.75 304.075 210.885C304.602 212.496 305.956 213.628 307.632 213.871C310.829 214.291 313.35 211.284 312.38 208.212C311.606 205.769 311.122 203.272 310.964 200.713ZM320.123 221.813C317.091 218.291 311.447 221.231 312.561 225.708C312.735 226.368 313.017 226.906 313.45 227.432C315.458 229.823 317.666 232.049 320.002 234.118C323.299 237.021 328.361 233.737 327.052 229.544C326.812 228.768 326.377 228.116 325.774 227.574C323.761 225.8 321.848 223.868 320.123 221.813Z" fill="white"/>
<path d="M333.521 229.583C332.419 227.448 333.257 224.824 335.391 223.723C337.525 222.62 340.149 223.457 341.251 225.592C341.267 225.622 346.711 236.4 353.697 244.699C355.24 246.545 354.996 249.295 353.149 250.838C352.55 251.339 351.855 251.652 351.139 251.782C347.076 252.812 342.722 253.507 338.434 253.76C334.239 254.009 330.109 253.834 326.365 253.142C324.004 252.703 322.445 250.43 322.885 248.069C323.324 245.706 325.596 244.149 327.958 244.588C331.021 245.155 334.43 245.294 337.914 245.089C339.483 244.997 341.067 244.834 342.646 244.608C337.287 237.038 333.535 229.609 333.521 229.583Z" fill="white"/>
<path fill-rule="evenodd" clip-rule="evenodd" d="M495.755 316.339C495.182 314.44 493.469 313.173 491.48 313.206C488.604 313.28 486.578 316.028 487.385 318.795L488.763 323.538C489.18 324.968 490.245 326.048 491.661 326.5C494.996 327.506 498.086 324.478 497.147 321.129C496.693 319.531 496.223 317.935 495.755 316.339ZM501.653 338.34C501.242 336.394 499.647 334.993 497.66 334.853C494.789 334.676 492.535 337.253 493.103 340.074C493.661 342.807 494.127 345.572 494.466 348.34C495.054 352.852 501.229 353.593 502.874 349.364C503.131 348.67 503.207 348.019 503.126 347.285C502.767 344.297 502.256 341.288 501.653 338.34ZM503.875 365.43C504.062 360.916 498.127 359.099 495.757 363.012C495.39 363.654 495.203 364.278 495.161 365.018C495.034 367.819 494.779 370.525 494.421 373.304C493.845 377.699 499.346 380.074 502.152 376.627C502.649 375.992 502.943 375.315 503.06 374.516C503.484 371.519 503.738 368.453 503.875 365.43ZM498.747 392.316C499.372 390.558 498.84 388.647 497.402 387.458C495.058 385.56 491.572 386.527 490.54 389.357C489.599 391.945 488.551 394.419 487.319 396.883C485.245 401.077 490.259 405.154 493.949 402.249C494.437 401.846 494.818 401.387 495.104 400.82C496.496 398.039 497.684 395.239 498.747 392.316ZM484.6 416.163C485.597 415.075 485.981 413.582 485.624 412.148C484.746 408.772 480.574 407.712 478.186 410.251C476.361 412.24 474.412 414.084 472.311 415.78C471.065 416.784 470.49 418.336 470.744 419.91C471.336 423.206 475.153 424.651 477.779 422.578C480.215 420.61 482.482 418.471 484.6 416.163ZM460.645 431.28C462.097 430.924 463.214 429.918 463.734 428.518C464.896 425.241 461.993 422 458.615 422.796C456.145 423.39 453.664 423.658 451.125 423.581C449.174 423.527 447.476 424.713 446.842 426.555C445.931 429.348 447.901 432.178 450.833 432.299C454.174 432.393 457.396 432.061 460.645 431.28ZM432.161 426.289C433.467 427.16 435.118 427.262 436.524 426.569C439.531 425.049 439.784 420.925 437.007 419.035C434.878 417.618 432.941 415.952 431.222 414.059C429.856 412.567 427.698 412.194 425.914 413.148C423.423 414.516 422.857 417.798 424.754 419.913C426.973 422.344 429.419 424.465 432.161 426.289ZM415.11 403.516C415.434 404.413 416.019 405.15 416.811 405.678C420.34 407.957 424.703 404.52 423.316 400.557C422.399 398.034 421.681 395.41 421.151 392.777C420.795 391.093 419.535 389.77 417.847 389.388C414.76 388.687 411.974 391.401 412.599 394.503C413.223 397.561 414.043 400.583 415.11 403.516Z" fill="white"/>
<path d="M430.607 380.365C431.904 382.386 431.317 385.078 429.296 386.375C427.274 387.673 424.583 387.087 423.285 385.064C423.27 385.04 418.712 378.075 414.836 369.65C413.852 370.903 412.919 372.194 412.053 373.506C410.133 376.419 408.55 379.444 407.51 382.378C406.71 384.644 404.224 385.833 401.959 385.032C399.694 384.232 398.505 381.747 399.305 379.481C400.578 375.892 402.492 372.227 404.804 368.719C407.167 365.133 409.946 361.71 412.869 358.707C413.34 358.151 413.957 357.707 414.691 357.438C416.951 356.611 419.454 357.773 420.283 360.034C423.977 370.234 430.588 380.336 430.607 380.365Z" fill="white"/>
</svg>
